Coordinates
version=1
nRows=11
nColumns=42
inDegrees=yes

Units are S.I. units (second, meters, Newtons, ...)
If the header above contains a line with 'inDegrees', this indicates whether rotational values are in degrees (yes) or radians (no).

endheader
time	pelvis_tilt	pelvis_list	pelvis_rotation	pelvis_tx	pelvis_ty	pelvis_tz	hip_flexion_r	hip_adduction_r	hip_rotation_r	knee_angle_r	knee_angle_r_beta	ankle_angle_r	subtalar_angle_r	mtp_angle_r	hip_flexion_l	hip_adduction_l	hip_rotation_l	knee_angle_l	knee_angle_l_beta	ankle_angle_l	subtalar_angle_l	mtp_angle_l	lumbar_extension	lumbar_bending	lumbar_rotation	sh_tx_r	sh_ty_r	sh_tz_r	sh_plane_elev_r	sh_elev_r	sh_axial_rot_r	elbow_flex_r	pro_sup_r	sh_tx_l	sh_ty_l	sh_tz_l	sh_plane_elev_l	sh_elev_l	sh_axial_rot_l	elbow_flex_l	pro_sup_l
      3.21666670	     -9.22909595	     -0.35627776	     -1.87004439	      0.30451162	      0.93255461	     -0.04187577	      5.43112317	     -6.13089067	     -4.61391433	      1.36152825	      0.02376315	      4.46891802	      2.39238002	     -7.49999987	      6.95725542	     -3.78425402	    -11.10667534	      1.09454166	      0.01910336	      7.07371651	      3.59119197	     -7.49999987	      5.31411726	      0.39270763	     -5.74321353	     -0.01699766	     -0.01597527	     -0.00613630	    -17.39404107	      6.22685534	      8.39309256	     29.70373916	    113.66893734	     -0.03021027	      0.01092056	     -0.00423500	     58.90092781	    106.69371593	     -3.19602829	      5.00053364	      2.12168765
      3.23333330	     -9.32314669	     -0.37700317	     -1.83062532	      0.30465037	      0.92975511	     -0.04194695	      5.51188125	     -6.11975420	     -4.71009119	      1.32887405	      0.02319323	      4.50556094	      2.54449286	     -7.49999987	      7.05440219	     -3.79759539	    -11.06527306	      1.07778399	      0.01881088	      7.10380294	      3.58011403	     -7.49999987	      5.46486556	      0.49937359	     -6.06232791	     -0.01569103	     -0.01603719	     -0.00619209	    -17.55291574	      6.15944918	      8.22771483	     29.68479287	    113.43120095	     -0.03049884	      0.01096758	     -0.00428145	     58.78493087	    107.09965310	     -3.35087278	      4.62096384	      2.03599919
      3.25000000	     -9.38572803	     -0.39197706	     -1.83216655	      0.30474364	      0.92942221	     -0.04200261	      5.57223249	     -6.09753949	     -4.67737445	      1.30677661	      0.02280755	      4.47339811	      2.48949387	     -7.49999987	      7.11127785	     -3.81733006	    -11.15175626	      1.05924787	      0.01848736	      7.16287788	      3.73291882	     -7.49999987	      5.53552955	      0.54302654	     -5.84975906	     -0.01626205	     -0.01613607	     -0.00625493	    -18.23853142	      6.07262979	      7.92289418	     29.69915936	    113.43427952	     -0.02991014	      0.01128452	     -0.00429677	     59.47726792	    107.45191016	     -3.27890897	      3.94899240	      2.09064882
      3.26666670	     -9.41542072	     -0.41581433	     -1.80973568	      0.30474551	      0.92960624	     -0.04197600	      5.58423125	     -6.08189968	     -4.67405546	      1.28154234	      0.02236713	      4.49217651	      2.49192528	     -7.49999987	      7.13902763	     -3.84104386	    -11.11558183	      1.04916277	      0.01831134	      7.22810961	      3.72505823	     -7.49999987	      5.60907895	      0.66577965	     -6.03448016	     -0.01522644	     -0.01622840	     -0.00628223	    -18.64022609	      6.02880859	      7.85226453	     29.84030725	    113.40480598	     -0.02945461	      0.01170368	     -0.00432711	     59.79136069	    108.19402506	     -5.08731011	      3.65543958	      2.09262916
      3.28333330	     -9.44860537	     -0.41689387	     -1.79183468	      0.30483089	      0.92947289	     -0.04202765	      5.60118705	     -6.08350196	     -4.82781708	      1.25757277	      0.02194879	      4.54261028	      2.73550038	     -7.49999987	      7.17833952	     -3.84119392	    -11.11947043	      1.05991592	      0.01849902	      7.25130603	      3.74595155	     -7.49999987	      5.69137413	      0.77460018	     -6.16949447	     -0.01484858	     -0.01620561	     -0.00635215	    -18.48954836	      6.03275018	      7.62091220	     29.94415038	    113.27785777	     -0.02984490	      0.01180184	     -0.00440246	     59.97182700	    108.76329236	     -5.31246325	      3.20102861	      2.09712685
      3.30000000	     -9.54823660	     -0.41345889	     -1.76030867	      0.30492772	      0.92975899	     -0.04195306	      5.69454393	     -6.09490293	     -4.90309985	      1.25852324	      0.02196537	      4.51169006	      2.82898573	     -7.49999987	      7.29275145	     -3.84255639	    -11.08074498	      1.06827688	      0.01864495	      7.25181322	      3.71797579	     -7.49999987	      5.85105796	      0.81661147	     -6.05579112	     -0.01525296	     -0.01619269	     -0.00636070	    -18.84507063	      5.95546586	      7.47235686	     29.98681485	    113.60406504	     -0.02891064	      0.01187590	     -0.00446917	     60.38382765	    109.55844518	     -7.16222668	      3.09723358	      2.13174749
      3.31666670	     -9.62157885	     -0.41180422	     -1.70686598	      0.30510767	      0.92940155	     -0.04199570	      5.74821815	     -6.10478529	     -5.01972863	      1.24315126	      0.02169708	      4.51965458	      2.98312213	     -7.49999987	      7.38758030	     -3.84467205	    -11.10457634	      1.09310377	      0.01907826	      7.30700533	      3.85960810	     -7.49999987	      6.00179264	      0.81386438	     -5.52483200	     -0.01589665	     -0.01623866	     -0.00629657	    -18.82098637	      5.87464557	      7.77978513	     29.86652729	    110.08584184	     -0.02713968	      0.01177157	     -0.00453787	     61.28529481	    110.19945926	     -9.74082477	      2.95431888	      2.07309451
      3.33333330	     -9.66019086	     -0.39968747	     -1.78367359	      0.30540135	      0.93281079	     -0.04216840	      5.82638653	     -6.11531561	     -4.88392366	      1.28373139	      0.02240534	      4.41049826	      2.87460120	     -7.49999987	      7.38565952	     -3.82115742	    -11.17211027	      1.05472366	      0.01840840	      7.27699579	      3.80661007	     -7.49999987	      6.08926633	      1.00006534	     -5.53969773	     -0.01468023	     -0.01620783	     -0.00636608	    -18.02563454	      5.83686474	      6.71575496	     29.71389373	    113.55865062	     -0.02744510	      0.01176298	     -0.00465177	     61.04531805	    110.23536765	     -9.43089124	      2.86144454	      2.12193640
      3.35000000	     -9.87813467	     -0.42153224	     -1.85151440	      0.30479234	      0.93196391	     -0.04239544	      6.42810251	     -6.13566373	     -4.72752985	      1.91059247	      0.03334613	      4.59772553	      2.69845620	     -7.49999987	      7.89946446	     -3.88513335	    -11.13559298	      1.60487414	      0.02801034	      7.43474266	      3.46496966	     -7.49999987	      6.66085736	      1.40751752	     -4.97629111	     -0.01325572	     -0.01344536	     -0.00589673	    -17.27313352	      6.09480728	      8.07346330	     28.89822204	    104.85509068	     -0.02263828	      0.01171470	     -0.00494215	     60.58284500	    110.04767858	    -12.40491651	      4.69838670	      4.86539081
      3.36666670	     -9.67279812	     -0.36540602	     -1.86413141	      0.30543163	      0.92916015	     -0.04191275	      5.90499960	     -6.14530921	     -4.64766649	      1.34950776	      0.02355335	      4.42104318	      2.71931030	     -7.49999987	      7.34682807	     -3.76462083	    -11.27873922	      1.03550822	      0.01807303	      7.37162501	      3.90581666	     -7.49999987	      6.14829165	      1.23647015	     -4.95588627	     -0.01490080	     -0.01615132	     -0.00640345	    -17.92095543	      5.77228610	      5.99395489	     29.51968181	    113.34087727	     -0.02606234	      0.01158329	     -0.00487562	     61.30672622	    110.57974014	    -10.12592693	      2.62777057	      2.09221465
      3.38333330	     -9.74029090	     -0.34547396	     -1.89755732	      0.30560610	      0.92878101	     -0.04201699	      6.02308905	     -6.16167690	     -4.59985815	      1.43105592	      0.02497664	      4.41314003	      2.61900455	     -7.49999987	      7.41194688	     -3.74760637	    -11.27564459	      1.04123111	      0.01817291	      7.38601718	      3.84182394	     -7.49999987	      6.22618989	      1.34002753	     -4.88007705	     -0.01483067	     -0.01595572	     -0.00638504	    -18.00780065	      5.77142806	      5.68615996	     29.62210430	    113.33065730	     -0.02554856	      0.01170479	     -0.00497091	     61.13473037	    110.74874557	    -10.56172187	      2.58238233	      2.09939101
